HIERARCHY
ROOT SpineBase
{
  OFFSET 0.000000 0.000000 0.000000
  CHANNELS 6 Xposition Yposition Zposition Zrotation Xrotation Yrotation
  JOINT SpineMid
  {
    OFFSET 0.000000 30.611811 0.000000
    CHANNELS 3 Zrotation Xrotation Yrotation
    JOINT SpineShoulder
    {
      OFFSET -0.199023 22.639905 -0.745998
      CHANNELS 3 Zrotation Xrotation Yrotation
      JOINT Neck
      {
        OFFSET -0.137650 7.457965 -0.576190
        CHANNELS 3 Zrotation Xrotation Yrotation
        JOINT Head
        {
          OFFSET -4.923989 13.098104 2.718527
          CHANNELS 3 Zrotation Xrotation Yrotation
          End Site
          {
            OFFSET 0 0 0
          }
        }
      }
      JOINT ShoulderLeft
      {
        OFFSET -14.354449 -6.140561 11.815238
        CHANNELS 3 Zrotation Xrotation Yrotation
        JOINT ElbowLeft
        {
          OFFSET -0.256996 -29.904188 -0.365242
          CHANNELS 3 Zrotation Xrotation Yrotation
          JOINT WristLeft
          {
            OFFSET -1.072201 -21.212633 -8.201166
            CHANNELS 3 Zrotation Xrotation Yrotation
            JOINT HandLeft
            {
              OFFSET 1.152098 -4.415807 -2.135496
              CHANNELS 3 Zrotation Xrotation Yrotation
              JOINT HandTipLeft
              {
                OFFSET -0.344435 -7.384162 -1.663272
                CHANNELS 3 Zrotation Xrotation Yrotation
                End Site
                {
                  OFFSET 0 0 0
                }
              }
              JOINT ThumbLeft
              {
                OFFSET -3.366744 -1.812532 -1.445228
                CHANNELS 3 Zrotation Xrotation Yrotation
                End Site
                {
                  OFFSET 0 0 0
                }
              }
            }
          }
        }
      }
      JOINT ShoulderRight
      {
        OFFSET 10.842963 -4.520468 -10.034234
        CHANNELS 3 Zrotation Xrotation Yrotation
        JOINT ElbowRight
        {
          OFFSET 6.900582 -25.000163 -1.227227
          CHANNELS 3 Zrotation Xrotation Yrotation
          JOINT WristRight
          {
            OFFSET -1.030246 -20.452287 -6.953140
            CHANNELS 3 Zrotation Xrotation Yrotation
            JOINT HandRight
            {
              OFFSET -2.941502 -8.615575 -2.647170
              CHANNELS 3 Zrotation Xrotation Yrotation
              JOINT HandTipRight
              {
                OFFSET -0.194099 -7.253776 -1.509977
                CHANNELS 3 Zrotation Xrotation Yrotation
                End Site
                {
                  OFFSET 0 0 0
                }
              }
              JOINT ThumbRight
              {
                OFFSET 1.626070 -0.314539 -3.548930
                CHANNELS 3 Zrotation Xrotation Yrotation
                End Site
                {
                  OFFSET 0 0 0
                }
              }
            }
          }
        }
      }
    }
  }
  JOINT HipLeft
  {
    OFFSET -6.001632 -0.422356 0.398541
    CHANNELS 3 Zrotation Xrotation Yrotation
    JOINT KneeLeft
    {
      OFFSET 3.783470 -37.978129 1.807002
      CHANNELS 3 Zrotation Xrotation Yrotation
      JOINT AnkleLeft
      {
        OFFSET 6.196632 -36.697030 4.327821
        CHANNELS 3 Zrotation Xrotation Yrotation
        JOINT FootLeft
        {
          OFFSET -4.766970 -6.644809 -7.728945
          CHANNELS 3 Zrotation Xrotation Yrotation
          End Site
          {
            OFFSET 0 0 0
          }
        }
      }
    }
  }
  JOINT HipRight
  {
    OFFSET 4.470529 1.443564 -7.909094
    CHANNELS 3 Zrotation Xrotation Yrotation
    JOINT KneeRight
    {
      OFFSET 11.951464 -38.214047 -6.152191
      CHANNELS 3 Zrotation Xrotation Yrotation
      JOINT AnkleRight
      {
        OFFSET 14.098374 -33.965990 2.284917
        CHANNELS 3 Zrotation Xrotation Yrotation
        JOINT FootRight
        {
          OFFSET -9.274045 -3.336686 -12.550303
          CHANNELS 3 Zrotation Xrotation Yrotation
          End Site
          {
            OFFSET 0 0 0
          }
        }
      }
    }
  }
}
MOTION
Frames: 10
Frame Time: 0.033333
71.444415 85.139366 358.802184 -0.000000 0.000000 38.425200 0.000000 -0.000000 -38.425200 -0.000000 0.000000 0.000000 -0.000000 0.000000 0.000000 0.000000 0.000000 0.000000 -0.000000 0.000000 0.000000 -0.000000 0.000000 0.000000 -0.000000 0.000000 0.000000 -0.000000 0.000000 0.000000 0.000000 0.000000 0.000000 0.000000 0.000000 0.000000 -0.000000 0.000000 0.000000 -0.000000 0.000000 0.000000 -0.000000 0.000000 0.000000 -0.000000 0.000000 0.000000 0.000000 0.000000 0.000000 0.000000 0.000000 0.000000 0.000000 -0.000000 -38.425200 -0.000000 0.000000 0.000000 -0.000000 0.000000 0.000000 0.000000 0.000000 0.000000 0.000000 -0.000000 -38.425200 -0.000000 0.000000 0.000000 -0.000000 0.000000 0.000000 0.000000 0.000000 0.000000
70.949972 84.842913 360.038494 0.508902 -0.374228 39.424077 -0.155469 0.612253 -39.421584 -0.000000 0.000000 0.000000 -0.000000 0.000000 0.000000 0.000000 0.000000 0.000000 -2.099515 -1.031378 0.015610 -0.458079 -1.803874 1.070650 -8.606196 -3.055957 2.773117 12.596376 1.564229 -4.736850 0.000000 0.000000 0.000000 0.000000 0.000000 0.000000 1.013932 0.676008 0.130483 0.245990 -0.030398 -0.594974 2.574414 1.159004 -1.366625 -3.939059 -3.805580 1.827158 0.000000 0.000000 0.000000 0.000000 0.000000 0.000000 -0.155469 0.612253 -39.421584 0.569020 1.285451 0.277927 1.825863 -5.374399 -0.022783 0.000000 0.000000 0.000000 -0.197827 2.640978 -38.724916 0.653993 -2.341513 -1.072706 3.908151 -2.735761 -2.492648 0.000000 0.000000 0.000000
70.494299 84.593945 361.111202 0.927245 -0.690846 40.397799 0.107153 0.144227 -40.368064 0.028086 0.095978 0.038614 -1.482795 1.168946 0.340682 0.000000 0.000000 0.000000 -4.842588 -1.645803 -0.038225 -0.983244 -3.380057 2.004868 -13.218521 -4.566145 4.228389 20.582222 1.296616 -8.290936 0.000000 0.000000 0.000000 0.000000 0.000000 0.000000 0.891086 1.706350 0.169696 0.419569 -0.186382 -1.076851 5.083238 2.208282 -2.691541 -7.289583 -7.176249 3.339636 0.000000 0.000000 0.000000 0.000000 0.000000 0.000000 -0.258514 1.127027 -40.389666 1.037356 2.375458 0.502468 3.096098 -9.539346 0.184815 0.000000 0.000000 0.000000 -0.292567 4.930247 -39.083852 1.069821 -4.464538 -2.070543 7.530054 -5.396878 -4.625548 0.000000 0.000000 0.000000
70.077398 84.392462 362.020308 1.255724 -0.950327 41.345978 0.144439 0.183213 -41.303598 0.035014 0.125512 0.051501 -1.948010 1.705539 0.489567 0.000000 0.000000 0.000000 -6.671107 -2.501524 -0.078477 -1.570859 -4.690677 2.820925 -15.640657 -5.201035 5.029065 25.677006 0.619479 -10.808232 0.000000 0.000000 0.000000 0.000000 0.000000 0.000000 1.184675 2.438107 0.240912 0.571129 -0.431014 -1.465958 7.197639 3.012712 -3.806381 -9.872408 -9.874714 4.486214 0.000000 0.000000 0.000000 0.000000 0.000000 0.000000 -0.315145 1.542895 -41.331320 1.408274 3.270521 0.679162 3.715681 -12.324379 0.450223 0.000000 0.000000 0.000000 -0.297300 6.872186 -39.504583 1.260616 -6.372582 -3.006237 10.620824 -7.586304 -6.165371 0.000000 0.000000 0.000000
69.699268 84.238464 362.765812 1.494947 -1.153111 42.268724 0.169432 0.201188 -42.216218 0.037145 0.142788 0.060441 -2.231460 2.211916 0.621469 0.000000 0.000000 0.000000 -8.101459 -3.378423 -0.128940 -2.220393 -5.710116 3.539275 -16.875077 -5.440460 5.442298 28.949972 0.264659 -12.580035 0.000000 0.000000 0.000000 0.000000 0.000000 0.000000 1.379401 3.090754 0.311069 0.735511 -0.740729 -1.776807 8.614864 3.477305 -4.542198 -11.522235 -11.681207 5.225665 0.000000 0.000000 0.000000 0.000000 0.000000 0.000000 -0.331032 1.858678 -42.248310 1.684345 3.971523 0.812440 3.616791 -13.651178 0.645015 0.000000 0.000000 0.000000 -0.224731 8.471521 -39.988113 1.237362 -8.070093 -3.888926 12.990922 -8.923821 -6.943256 0.000000 0.000000 0.000000
69.359910 84.131952 363.347713 1.645408 -1.299585 43.166583 0.181181 0.198902 -43.107048 0.034484 0.147841 0.065601 -2.334305 2.689286 0.734716 0.000000 0.000000 0.000000 -9.133476 -4.277089 -0.185692 -2.934810 -6.422812 4.180365 -17.465075 -5.580691 5.577645 31.021370 0.621743 -13.813825 0.000000 0.000000 0.000000 0.000000 0.000000 0.000000 1.476224 3.665609 0.384979 0.936942 -1.101019 -2.019666 9.080333 3.534804 -4.752596 -12.093065 -12.416672 5.516055 0.000000 0.000000 0.000000 0.000000 0.000000 0.000000 -0.311517 2.073360 -43.142283 1.867417 4.479286 0.905632 2.776894 -13.503171 0.710152 0.000000 0.000000 0.000000 -0.087437 9.732354 -40.534362 1.009027 -9.561591 -4.724355 14.517405 -9.134928 -6.862430 0.000000 0.000000 0.000000
69.136830 84.103766 363.699524 1.765963 -1.385088 44.150090 0.134788 0.204073 -44.085534 0.015577 0.137226 0.066568 -2.170018 3.105032 0.791677 0.000000 0.000000 0.000000 -9.564347 -5.741589 -0.270413 -4.527052 -5.385390 5.135308 -18.353320 -7.340556 5.126297 33.537306 3.018017 -15.338210 0.000000 0.000000 0.000000 0.000000 0.000000 0.000000 1.345477 4.218118 0.490259 1.466297 -1.677344 -2.246434 7.597245 1.671827 -3.372665 -10.801544 -10.350414 4.698943 0.000000 0.000000 0.000000 0.000000 0.000000 0.000000 0.641840 2.613082 -44.050068 1.391699 3.741311 0.844108 -3.595039 -4.182761 0.458546 0.000000 0.000000 0.000000 0.099834 11.107164 -41.113005 0.119742 -11.674854 -6.066254 16.055228 -7.842081 -6.145774 0.000000 0.000000 0.000000
68.887545 84.113330 363.947633 1.653467 -1.507419 44.872394 0.102249 0.182834 -44.811856 -0.019888 0.125924 0.057319 -1.537557 3.679438 0.842273 0.000000 0.000000 0.000000 -9.757026 -6.671609 -0.309319 -4.959425 -4.874347 5.580920 -19.626176 -9.115786 4.749176 34.545768 6.696721 -16.057870 0.000000 0.000000 0.000000 0.000000 0.000000 0.000000 1.161852 4.640399 0.593580 2.103338 -2.106403 -2.381962 4.920189 1.929749 -2.579081 -8.674493 -9.421623 4.022135 0.000000 0.000000 0.000000 0.000000 0.000000 0.000000 1.400971 2.660385 -44.740362 0.870093 3.175350 0.754186 -5.512988 -0.890732 0.639166 0.000000 0.000000 0.000000 0.500569 11.744890 -41.640644 -0.994784 -13.079954 -7.107019 16.397147 -5.572590 -4.342735 0.000000 0.000000 0.000000
68.640945 84.147005 364.046318 1.530759 -1.450652 45.622243 0.118271 0.093033 -45.565651 -0.026723 0.092253 0.054592 -1.206716 4.034375 0.898617 0.000000 0.000000 0.000000 -9.900218 -6.930746 -0.326280 -6.278273 -6.674673 6.160673 -17.546684 -7.848216 3.912625 32.029064 10.123393 -14.720728 0.000000 0.000000 0.000000 0.000000 0.000000 0.000000 0.984770 4.935333 0.687590 2.325361 -2.617967 -2.421046 1.733740 0.448327 -0.895915 -4.838263 -6.159159 2.415290 0.000000 0.000000 0.000000 0.000000 0.000000 0.000000 1.648546 2.395088 -45.482491 0.694462 3.249092 0.758975 -6.372682 -0.052621 0.883575 0.000000 0.000000 0.000000 0.658090 11.701072 -42.376774 -1.796820 -13.536716 -7.591264 15.258333 -2.758589 -1.589535 0.000000 0.000000 0.000000
68.348612 84.214779 364.070816 1.278084 -1.388057 46.569217 0.134842 -0.018030 -46.521820 -0.031441 0.052156 0.046923 -0.790834 4.475826 0.994379 0.000000 0.000000 0.000000 -9.299830 -7.063238 -0.302331 -6.951179 -7.887152 6.256742 -16.143992 -7.646866 2.817987 30.865085 12.705174 -13.877227 0.000000 0.000000 0.000000 0.000000 0.000000 0.000000 0.873128 5.238934 0.794084 2.404268 -3.068990 -2.411712 -0.983728 -1.404365 0.681354 -0.975100 -4.432891 0.681470 0.000000 0.000000 0.000000 0.000000 0.000000 0.000000 2.097557 2.061075 -46.410902 0.481281 3.082101 0.732844 -5.631570 -1.241077 0.830802 0.000000 0.000000 0.000000 0.947369 11.082520 -43.472195 -2.254193 -13.328552 -7.560907 12.659951 0.341746 1.899434 0.000000 0.000000 0.000000
